<svg width="126" height="33" viewBox="0 0 126 33" fill="none" xmlns="http://www.w3.org/2000/svg">
<g clip-path="url(#clip0_942_58784)">
<path d="M125.567 0.375H0V32.375H125.567V0.375Z" fill="#010101"/>
<path fill-rule="evenodd" clip-rule="evenodd" d="M103.877 7.6377H103.946C106.243 7.6377 108.108 9.05178 108.108 10.7941C108.091 11.1047 107.938 11.2562 107.646 11.2562H105.915C105.642 11.2562 105.488 11.1047 105.435 10.7739C105.041 9.65529 103.246 9.67297 102.751 10.7588C102.336 11.6527 102.336 12.5504 102.716 13.4822C103.416 14.7902 105.196 14.3925 105.455 13.3092C105.457 13.1884 105.506 13.0733 105.593 12.9891C105.679 12.9049 105.794 12.8584 105.915 12.8597H107.646C107.867 12.8256 108.056 12.986 108.108 13.289C108.108 14.4607 106.735 16.5603 103.946 16.5603H103.877C102.774 16.56 101.717 16.1194 100.936 15.3354C100.156 14.5514 99.7171 13.488 99.7158 12.3787V11.8307C99.7171 10.721 100.156 9.65702 100.936 8.87219C101.716 8.08735 102.774 7.64568 103.877 7.64401V7.6377ZM92.0772 7.8637H93.9074C93.9939 7.87342 94.0741 7.91363 94.1338 7.97719C94.1936 8.04076 94.229 8.12356 94.2338 8.21091V13.3458C94.2368 13.5939 94.3371 13.8309 94.513 14.0049C94.6889 14.179 94.926 14.2761 95.1728 14.2751H95.6385C95.7606 14.2767 95.8818 14.2539 95.995 14.2079C96.1082 14.1618 96.2111 14.0936 96.2978 14.007C96.3844 13.9205 96.453 13.8174 96.4995 13.7039C96.546 13.5903 96.5695 13.4686 96.5687 13.3458V8.22606C96.6051 8.00132 96.7419 7.87885 96.998 7.8637H98.8132C99.0191 7.90031 99.2074 7.94955 99.2237 8.21091L99.2425 13.4809C99.2369 14.2962 98.9121 15.0764 98.3386 15.6526C97.7651 16.2288 96.9889 16.5544 96.1783 16.5591H94.6481C93.8361 16.5581 93.0576 16.2336 92.4829 15.6568C91.9081 15.0799 91.584 14.2975 91.5813 13.4809C91.5813 11.7234 91.5675 9.96589 91.5675 8.21091C91.634 8.03667 91.7721 7.90031 92.0822 7.8637H92.0772ZM83.2548 7.90031H85.1579C85.2085 7.89844 85.2589 7.90686 85.3062 7.92506C85.3535 7.94325 85.3967 7.97086 85.4331 8.00622C85.4696 8.04158 85.4986 8.08397 85.5184 8.13085C85.5381 8.17774 85.5483 8.22815 85.5483 8.27908V10.7575H87.8455V8.27782C87.8455 8.17737 87.8852 8.08102 87.9558 8.00999C88.0264 7.93896 88.1222 7.89905 88.2221 7.89905H90.1239C90.1746 7.89754 90.2251 7.90617 90.2724 7.92445C90.3198 7.94273 90.3631 7.97029 90.3997 8.00553C90.4364 8.04077 90.4658 8.08299 90.4861 8.12973C90.5064 8.17648 90.5173 8.22681 90.5181 8.27782V15.9227C90.5169 15.9736 90.5058 16.0238 90.4854 16.0704C90.465 16.117 90.4356 16.1591 90.399 16.1942C90.3624 16.2294 90.3193 16.257 90.2721 16.2754C90.2249 16.2938 90.1745 16.3027 90.1239 16.3015H88.2259C88.126 16.3015 88.0302 16.2616 87.9596 16.1905C87.889 16.1195 87.8493 16.0232 87.8493 15.9227V12.967H85.5521V15.9278C85.5521 15.9787 85.5419 16.0291 85.5221 16.076C85.5023 16.1229 85.4734 16.1653 85.4369 16.2006C85.4005 16.236 85.3573 16.2636 85.31 16.2818C85.2627 16.3 85.2123 16.3084 85.1617 16.3065H83.2624C83.1625 16.3065 83.0667 16.2666 82.9961 16.1956C82.9254 16.1246 82.8858 16.0282 82.8858 15.9278V8.27782C82.8858 8.17737 82.9254 8.08102 82.9961 8.00999C83.0667 7.93896 83.1625 7.89905 83.2624 7.89905L83.2548 7.90031ZM75.1907 7.90031H79.1638C80.8082 7.90031 82.125 9.15657 82.125 10.6881V10.7727C82.1272 11.1388 82.0574 11.5018 81.9195 11.8407C81.7817 12.1796 81.5786 12.4877 81.322 12.7474C81.0653 13.0071 80.7601 13.2131 80.424 13.3538C80.0879 13.4944 79.7274 13.5668 79.3634 13.5668H77.4226V15.9227C77.4226 16.0232 77.383 16.1195 77.3123 16.1905C77.2417 16.2616 77.1459 16.3015 77.046 16.3015H75.1957C75.0958 16.3015 75 16.2616 74.9294 16.1905C74.8588 16.1195 74.8191 16.0232 74.8191 15.9227V8.27782C74.8191 8.17737 74.8588 8.08102 74.9294 8.00999C75 7.93896 75.0958 7.89905 75.1957 7.89905L75.1907 7.90031ZM77.4176 10.1035H78.8399C78.9259 10.1025 79.0112 10.1187 79.0909 10.1511C79.1705 10.1836 79.243 10.2316 79.3041 10.2924C79.3652 10.3533 79.4137 10.4257 79.4467 10.5056C79.4797 10.5854 79.4966 10.6711 79.4964 10.7575C79.4934 10.9283 79.4236 11.091 79.3021 11.2104C79.1806 11.3298 79.0173 11.3961 78.8474 11.3951H77.4226L77.4176 10.1035ZM65.944 7.6377H66.0307C68.4471 7.6377 70.138 9.17299 70.1883 10.4305C70.2786 10.8244 70.1067 11.135 69.7979 11.135H68.0731C67.7981 11.135 67.6588 11.1035 67.5898 10.7727C67.1818 9.65403 65.0917 9.67171 64.5619 10.7575C64.1326 11.6514 64.1326 12.5491 64.5243 13.4809C65.2775 14.7889 67.286 14.3571 67.537 13.5819H66.4073C66.1123 13.5819 65.9051 13.4809 65.8938 13.169V11.7714C65.875 11.5302 66.0194 11.3446 66.5629 11.3446H69.7012C70.1431 11.3446 70.2837 11.5668 70.2837 11.9759V15.7119C70.3176 16.006 70.2146 16.2295 69.8895 16.3697C69.479 16.3507 69.0836 16.3507 68.6869 16.3507C68.4007 16.3848 68.2764 16.2144 68.176 15.8457C67.6111 16.1916 66.8567 16.5502 66.0357 16.5502H65.9491C63.5163 16.5502 61.5492 14.6778 61.5492 12.3686V11.8307C61.5492 9.52272 63.5163 7.64401 65.9491 7.64401L65.944 7.6377ZM53.4286 7.90031H55.2689C55.3923 7.9144 55.5112 7.95564 55.6171 8.0211C55.7229 8.08655 55.8132 8.17463 55.8814 8.27908L58.2452 12.0832V8.27782C58.2452 8.17737 58.2849 8.08102 58.3555 8.00999C58.4261 7.93896 58.5219 7.89905 58.6218 7.89905H60.4043C60.455 7.89788 60.5053 7.90674 60.5525 7.92514C60.5997 7.94355 60.6428 7.97112 60.6795 8.0063C60.7161 8.04147 60.7454 8.08356 60.7658 8.13015C60.7863 8.17674 60.7974 8.22692 60.7985 8.27782V15.9227C60.7958 15.9804 60.7804 16.0369 60.7535 16.0879C60.7266 16.139 60.6888 16.1835 60.6429 16.2182C60.6221 16.2479 60.5938 16.2714 60.5609 16.2863C60.528 16.3012 60.4917 16.3069 60.4558 16.3028H58.6193C58.5326 16.2999 58.449 16.2703 58.3795 16.2182C58.2467 16.1514 58.1346 16.0492 58.0557 15.9227L55.6103 11.9797V15.9227C55.6087 16.0227 55.5685 16.1181 55.4982 16.1888C55.4279 16.2594 55.3331 16.2999 55.2337 16.3015H53.4336C53.3337 16.3015 53.2379 16.2616 53.1673 16.1905C53.0967 16.1195 53.057 16.0232 53.057 15.9227V8.27782C53.057 8.17737 53.0967 8.08102 53.1673 8.00999C53.2379 7.93896 53.3337 7.89905 53.4336 7.89905L53.4286 7.90031ZM27.6243 7.90031H29.5224C29.6222 7.90031 29.718 7.94022 29.7887 8.01125C29.8593 8.08228 29.899 8.17863 29.899 8.27908V10.7575H32.1949V8.27782C32.1949 8.22645 32.2052 8.17559 32.2253 8.12836C32.2454 8.08112 32.2748 8.0385 32.3118 8.00307C32.3488 7.96763 32.3926 7.94014 32.4404 7.92226C32.4883 7.90438 32.5393 7.89648 32.5903 7.89905H34.4934C34.5933 7.89905 34.6891 7.93896 34.7597 8.00999C34.8303 8.08102 34.87 8.17737 34.87 8.27782V15.9227C34.8681 16.0226 34.8278 16.1178 34.7576 16.1884C34.6873 16.259 34.5927 16.2995 34.4934 16.3015H32.5941C32.5434 16.303 32.4928 16.2944 32.4454 16.2761C32.398 16.2578 32.3546 16.2303 32.3178 16.1951C32.2811 16.1599 32.2516 16.1176 32.2311 16.0709C32.2107 16.0241 32.1997 15.9738 32.1987 15.9227V12.967H29.9027V15.9278C29.9027 16.0282 29.863 16.1246 29.7924 16.1956C29.7218 16.2666 29.626 16.3065 29.5261 16.3065H27.6293C27.5785 16.3081 27.5279 16.2994 27.4804 16.2812C27.4329 16.2629 27.3895 16.2354 27.3526 16.2002C27.3157 16.165 27.2862 16.1228 27.2656 16.076C27.245 16.0293 27.2338 15.9789 27.2327 15.9278V8.27782C27.2336 8.22665 27.2447 8.17618 27.2652 8.12934C27.2858 8.0825 27.3153 8.04024 27.3522 8.005C27.3892 7.96976 27.4327 7.94224 27.4802 7.92406C27.5278 7.90587 27.5785 7.89737 27.6293 7.89905L27.6243 7.90031ZM39.9013 7.6377H40.3959C41.5222 7.64103 42.6013 8.09277 43.3973 8.89412C44.1934 9.69548 44.6416 10.7813 44.6439 11.914V12.3092C44.6369 13.4381 44.1864 14.5185 43.3906 15.3146C42.5948 16.1107 41.5183 16.5581 40.3959 16.5591H39.9013C38.7806 16.5577 37.7061 16.1097 36.9132 15.3131C36.1203 14.5166 35.6735 13.4364 35.6709 12.3092V11.914C35.6692 10.7831 36.1137 9.69765 36.9068 8.89594C37.6999 8.09422 38.7768 7.64171 39.9013 7.6377ZM40.0607 9.93685H40.2641C41.2081 9.93685 41.9763 10.8623 41.9763 12.015V12.2095C41.9763 13.3458 41.2081 14.2751 40.2641 14.2751H40.0607C39.1155 14.2751 38.3447 13.3458 38.3447 12.2095V12.0163C38.3447 10.8636 39.1155 9.93811 40.0607 9.93811V9.93685ZM44.4066 16.3242H46.38C46.4378 16.3315 46.4963 16.3184 46.5456 16.2871C46.5948 16.2558 46.6317 16.2082 46.6499 16.1525L47.1809 14.7927H49.7317L50.2652 16.1525C50.2962 16.218 50.3487 16.2708 50.4138 16.302C50.479 16.3333 50.5528 16.3411 50.6229 16.3242H52.5059C52.8825 16.3432 52.9854 16.1348 52.8335 15.6929L49.9024 8.21848C49.8672 8.1262 49.8066 8.04593 49.7277 7.98711C49.6488 7.92828 49.5548 7.89335 49.4567 7.88642H47.5587C47.446 7.88588 47.3352 7.91658 47.2387 7.97515C47.1421 8.03373 47.0635 8.11791 47.0114 8.21848L44.0639 15.7434C44.0289 15.8031 44.0104 15.8711 44.0104 15.9404C44.0103 16.0097 44.0288 16.0777 44.0638 16.1374C44.0988 16.1971 44.149 16.2463 44.2093 16.2798C44.2696 16.3133 44.3378 16.33 44.4066 16.328V16.3242ZM48.037 12.5693L48.4462 11.5189L48.8605 12.5693H48.037Z" fill="#FCEE1F"/>
<path d="M27.5452 20.8576V20.1885H28.0121V20.8576H27.5452ZM27.5452 24.9989V21.5016H28.0121V24.9989H27.5452Z" fill="white"/>
<path d="M34.8739 24.9991V22.8527C34.8882 22.6293 34.8566 22.4054 34.7811 22.1949C34.7378 22.1114 34.6707 22.0427 34.5884 21.9977C34.5061 21.9528 34.4123 21.9335 34.3191 21.9424C34.2018 21.9359 34.0848 21.9583 33.978 22.0076C33.8713 22.0569 33.7781 22.1316 33.7065 22.2252C33.5512 22.4571 33.4758 22.7339 33.4918 23.0131V24.9991H33.0261V21.5018H33.473V22.0068C33.6864 21.6078 33.9814 21.4121 34.3643 21.4121C34.7827 21.4121 35.0698 21.5703 35.2254 21.8868C35.3095 22.051 35.351 22.33 35.351 22.7328V24.9991H34.8739Z" fill="white"/>
<path d="M40.9007 24.1193C40.8928 24.2171 40.907 24.3155 40.9421 24.4071C40.9629 24.4426 40.9937 24.471 41.0305 24.489C41.0674 24.507 41.1086 24.5136 41.1492 24.5081C41.2331 24.5081 41.3169 24.5035 41.4003 24.4942V24.993C41.2768 25.0232 41.1506 25.0405 41.0237 25.0447C40.804 25.0447 40.6471 24.993 40.563 24.8818C40.4789 24.7707 40.4287 24.5889 40.4287 24.315V21.9678H40.0144V21.5019H40.4287V20.5234H40.8969V21.5019H41.399V21.9678H40.8969L40.9007 24.1193Z" fill="white"/>
<path d="M48.0143 23.87H48.4763C48.445 24.2158 48.2996 24.5411 48.0633 24.7942C47.9574 24.8991 47.8315 24.9814 47.6933 25.0363C47.555 25.0912 47.4072 25.1175 47.2586 25.1136C47.0666 25.1193 46.8767 25.0719 46.7096 24.9766C46.5425 24.8814 46.4046 24.7418 46.3108 24.5732C46.1075 24.2475 46.0083 23.8157 46.0083 23.2867C46.0083 22.7576 46.1037 22.2943 46.2958 21.9584C46.3866 21.7818 46.5252 21.6346 46.6955 21.5337C46.8658 21.4327 47.061 21.3821 47.2586 21.3878C47.4477 21.3794 47.6356 21.4217 47.803 21.5105C47.9704 21.5992 48.1114 21.7312 48.2114 21.8928C48.4139 22.2 48.5148 22.6242 48.5139 23.1655C48.5139 23.2917 48.5139 23.3751 48.5064 23.4256H46.4979C46.4886 23.7118 46.5563 23.9953 46.6937 24.2462C46.7558 24.352 46.8452 24.4389 46.9523 24.4978C47.0595 24.5567 47.1805 24.5854 47.3025 24.5808C47.7005 24.5821 47.939 24.3422 48.0143 23.87ZM46.4991 22.9319H48.0256C48.0256 22.2488 47.7745 21.9105 47.2724 21.9105C46.8067 21.9105 46.5468 22.2488 46.4991 22.9319Z" fill="white"/>
<path d="M53.3472 24.9987V21.5014H53.8016V22.1327C53.9497 21.6668 54.2045 21.4307 54.5724 21.4307C54.6143 21.4306 54.6562 21.4327 54.6979 21.437V22.0569H54.5837C54.0815 22.0569 53.8192 22.3902 53.8192 23.0594V24.9987H53.3472Z" fill="white"/>
<path d="M61.2655 24.9991V22.8527C61.2782 22.6291 61.2453 22.4052 61.1688 22.1949C61.1259 22.1114 61.059 22.0427 60.9769 21.9977C60.8948 21.9526 60.8012 21.9334 60.7081 21.9424C60.5906 21.9355 60.4732 21.9577 60.3662 22.007C60.2592 22.0563 60.1658 22.1312 60.0943 22.2252C59.94 22.4575 59.8651 22.7341 59.8809 23.0131V24.9991H59.4114V21.5018H59.8558V22.0068C60.0679 21.6078 60.3654 21.4121 60.7508 21.4121C61.1663 21.4121 61.455 21.5699 61.6132 21.8868C61.6935 22.051 61.7387 22.33 61.7387 22.7328V24.9991H61.2655Z" fill="white"/>
<path d="M68.4562 24.5318C68.165 24.9139 67.8369 25.1054 67.4721 25.1062C67.3505 25.1125 67.2291 25.0922 67.1162 25.0466C67.0033 25.0011 66.9015 24.9314 66.818 24.8423C66.6396 24.6204 66.55 24.3394 66.567 24.0545C66.567 23.4232 66.8858 23.0596 67.5173 22.9573L67.8461 22.9119C67.9439 22.9036 68.0412 22.8897 68.1374 22.8702C68.2817 22.8374 68.3646 22.7869 68.3884 22.72C68.4121 22.6307 68.421 22.5381 68.4148 22.446C68.4148 22.0887 68.2077 21.9106 67.7871 21.9106C67.349 21.9106 67.1319 22.124 67.1319 22.5558H66.6925V22.5306C66.6925 22.1518 66.8055 21.8538 67.0314 21.6468C67.2465 21.4649 67.5215 21.3707 67.8022 21.3829C68.5278 21.3829 68.8893 21.7415 68.8893 22.4662V24.2161C68.885 24.3007 68.8914 24.3856 68.9081 24.4686C68.9184 24.5023 68.9397 24.5315 68.9688 24.5513C68.9978 24.571 69.0326 24.5802 69.0676 24.5772C69.11 24.5758 69.1521 24.5695 69.1931 24.5583V25.0141C69.1068 25.0473 69.0156 25.0657 68.9232 25.0683C68.6102 25.0683 68.4541 24.8962 68.455 24.552L68.4562 24.5318ZM68.4186 23.2212C68.219 23.3294 68.0002 23.3968 67.7746 23.4194C67.6754 23.4333 67.5913 23.4485 67.5311 23.4586C67.3907 23.4748 67.2621 23.5455 67.1728 23.6556C67.0835 23.7658 67.0404 23.9066 67.0528 24.0482C67.0528 24.4093 67.221 24.5911 67.5549 24.5911C67.7682 24.5962 67.9763 24.5241 68.1411 24.3878C68.2333 24.3081 68.3061 24.2084 68.3542 24.0962C68.4023 23.984 68.4243 23.8622 68.4186 23.7401V23.2212Z" fill="white"/>
<path d="M74.4752 24.1193C74.4676 24.2172 74.4822 24.3156 74.5178 24.4071C74.538 24.4426 74.5683 24.4712 74.6048 24.4892C74.6412 24.5072 74.6822 24.5138 74.7225 24.5081C74.8063 24.5081 74.8901 24.5035 74.9735 24.4942V24.993C74.85 25.0229 74.7239 25.0402 74.5969 25.0447C74.3747 25.0447 74.2203 24.993 74.1337 24.8818C74.0471 24.7707 74.0019 24.5889 74.0019 24.315V21.9678H73.5964V21.5019H74.0119V20.5234H74.4752V21.5019H74.9773V21.9678H74.4752V24.1193Z" fill="white"/>
<path d="M79.7148 20.8576V20.1885H80.1806V20.8576H79.7148ZM79.7148 24.9989V21.5016H80.1806V24.9989H79.7148Z" fill="white"/>
<path d="M85.0549 23.2411C85.0549 22.6818 85.1629 22.231 85.3775 21.9116C85.4919 21.751 85.6426 21.6202 85.8173 21.5299C85.9919 21.4397 86.1854 21.3926 86.3818 21.3926C86.5781 21.3926 86.7717 21.4397 86.9463 21.5299C87.121 21.6202 87.2717 21.751 87.386 21.9116C87.6036 22.2365 87.712 22.6801 87.7112 23.2423C87.7112 23.8105 87.6032 24.2524 87.3885 24.5807C87.2743 24.7427 87.1231 24.8749 86.9476 24.9661C86.7721 25.0574 86.5774 25.105 86.3799 25.105C86.1824 25.105 85.9877 25.0574 85.8122 24.9661C85.6367 24.8749 85.4855 24.7427 85.3713 24.5807C85.1612 24.2583 85.0558 23.8118 85.0549 23.2411ZM85.5332 23.2411C85.5332 24.1375 85.8182 24.5832 86.3881 24.5832C86.958 24.5832 87.2329 24.1375 87.2329 23.2411C87.2329 22.3446 86.9504 21.9103 86.3881 21.9103C85.8257 21.9103 85.5332 22.3535 85.5332 23.2411Z" fill="white"/>
<path d="M94.4348 24.9991V22.8527C94.4493 22.6289 94.4159 22.4046 94.3369 22.1949C94.2936 22.1114 94.2265 22.0427 94.1442 21.9977C94.0619 21.9528 93.9682 21.9335 93.8749 21.9424C93.7576 21.9357 93.6405 21.958 93.5337 22.0073C93.427 22.0566 93.3338 22.1314 93.2623 22.2252C93.1079 22.4574 93.0334 22.7342 93.0502 23.0131V24.9991H92.5845V21.5018H93.0289V22.0068C93.2423 21.6078 93.5385 21.4121 93.9201 21.4121C94.3386 21.4121 94.626 21.5703 94.7825 21.8868C94.8641 22.051 94.9081 22.33 94.9081 22.7328V24.9991H94.4348Z" fill="white"/>
<path d="M101.628 24.532C101.337 24.9141 101.009 25.1056 100.644 25.1064C100.523 25.1127 100.402 25.0923 100.289 25.0468C100.177 25.0012 100.075 24.9315 99.9923 24.8426C99.8122 24.6215 99.7225 24.3399 99.7412 24.0547C99.7412 23.4234 100.06 23.0598 100.694 22.9575L101.024 22.9121C101.122 22.9031 101.219 22.8892 101.315 22.8704C101.453 22.8376 101.539 22.7871 101.566 22.7202C101.59 22.6309 101.599 22.5384 101.594 22.4462C101.594 22.0889 101.384 21.9109 100.966 21.9109C100.528 21.9109 100.307 22.1242 100.307 22.556H99.8705V22.5308C99.8705 22.152 99.9785 21.854 100.207 21.647C100.422 21.4639 100.699 21.3696 100.98 21.3831C101.703 21.3831 102.064 21.7417 102.064 22.4664V24.2163C102.059 24.301 102.066 24.386 102.084 24.4688C102.094 24.5024 102.116 24.5315 102.144 24.5512C102.173 24.5709 102.208 24.5802 102.243 24.5774C102.286 24.5758 102.328 24.5695 102.369 24.5585V25.0143C102.281 25.0476 102.189 25.0659 102.096 25.0686C101.785 25.0686 101.63 24.8969 101.63 24.5522L101.628 24.532ZM101.59 23.2214C101.39 23.3296 101.171 23.397 100.945 23.4196C100.84 23.4335 100.761 23.4487 100.702 23.4588C100.561 23.4747 100.432 23.5453 100.342 23.6554C100.253 23.7656 100.21 23.9066 100.222 24.0484C100.222 24.4095 100.391 24.5913 100.724 24.5913C100.937 24.5958 101.144 24.5237 101.309 24.388C101.402 24.3088 101.475 24.2092 101.524 24.0969C101.572 23.9845 101.594 23.8626 101.588 23.7403L101.59 23.2214Z" fill="white"/>
<path d="M107.102 24.9989V20.1885H107.576V24.9989H107.102Z" fill="white"/>
</g>
<defs>
<clipPath id="clip0_942_58784">
<rect width="125.567" height="32" fill="white" transform="translate(0 0.375)"/>
</clipPath>
</defs>
</svg>
